# xmcd
#
# Track frame offsets: 
#        150
#        1014
#        20508
#        20940
#        37302
#        41946
#        57336
#        58173
#        84768
#        88818
#        106233
#        122892
#        132477
#        147894
#        159693
#        163500
#        176514
#        183696
#        201219
#        202785
#        219336
#        223224
#        241935
#        244095
#
# Disc length: 3611 seconds
#
# Revision: 0
# Processed by: cddbd v1.5.2PL0 Copyright (c) Steve Scherf et al.
# Submitted via: ExactAudioCopy v0.95b3
#
DISCID=610e1918
DTITLE=The Beatles  - The Days In Their Life - Vol.19  FLAC
DYEAR=1900
DGENRE=
TTITLE0=Narrative
TTITLE1=Junior's Farm (Paul McCartney And Wings)
TTITLE2=Narrative
TTITLE3=Sally G (Paul McCartney And Wings)
TTITLE4=Narrative
TTITLE5=Snookeroo (Ringo Starr)
TTITLE6=Narrative
TTITLE7=Lucy In The Sky With Diamonds (Elton John)
TTITLE8=Narrative
TTITLE9=Dark Horse (George Harrison)
TTITLE10=NarrativeDing Dong, Ding Dong (George Harrison)
TTITLE11=Narrative
TTITLE12=Stand By Me (John Lennon)
TTITLE13=Bop-A-Lula (John Lennon)
TTITLE14=Narrative
TTITLE15=Move Over Ms. L (John Lennon)
TTITLE16=Narrative
TTITLE17=Listen To What The Man Said (Wings)
TTITLE18=Narrative
TTITLE19=You (George Harrison)
TTITLE20=Narrative
TTITLE21=This Guitar (Can't Keep From Crying) (George Harrison)
TTITLE22=Narrative
TTITLE23=Silly Love Songs (Wings)
EXTD=
EXTT0=
EXTT1=
EXTT2=
EXTT3=
EXTT4=
EXTT5=
EXTT6=
EXTT7=
EXTT8=
EXTT9=
EXTT10=
EXTT11=
EXTT12=
EXTT13=
EXTT14=
EXTT15=
EXTT16=
EXTT17=
EXTT18=
EXTT19=
EXTT20=
EXTT21=
EXTT22=
EXTT23=
PLAYORDER=
